<?xml version="1.0" ?><!DOCTYPE svg  PUBLIC '-//W3C//DTD SVG 1.1//EN'  'http://www.w3.org/Graphics/SVG/1.1/DTD/svg11.dtd'><svg xmlns="http://www.w3.org/2000/svg" xmlns:xlink="http://www.w3.org/1999/xlink" version="1.1" id="Layer_1" width="512px" height="512px" viewBox="0 0 512 512" enable-background="new 0 0 512 512" xml:space="preserve"><g><path fill="#BBBBBB" d="M469.5,393.675c-10.18,10.18-24.23,16.5-39.67,16.5H82.16c-15.46,0-29.51-6.33-39.69-16.53l0.2-0.14   l141.62-141.62l39.08,36.82c17.94,16.99,47.31,16.99,65.25,0l39.08-36.82L469.5,393.675z"/><path fill="#DEDEDF" d="M184.29,251.885L42.67,393.505l-0.2,0.14c-10.16-10.18-16.47-24.2-16.47-39.64v-196.01   c0-15.44,6.32-29.49,16.5-39.67L184.29,251.885z"/><path fill="#DEDEDF" d="M486,157.996v196.01c0,15.45-6.32,29.49-16.5,39.67l-141.8-141.79l141.8-133.56   C479.68,128.505,486,142.555,486,157.996z"/><path fill="#CCCCCD" d="M469.5,118.325l-141.8,133.56l-39.08,36.82c-17.94,16.99-47.31,16.99-65.25,0l-39.08-36.82L42.5,118.325   c10.17-10.18,24.21-16.5,39.66-16.5h347.67C445.27,101.825,459.32,108.146,469.5,118.325z"/></g></svg>